<svg width="240" height="180" viewBox="0 0 240 180" fill="none" xmlns="http://www.w3.org/2000/svg">
  <rect x="20" y="20" width="200" height="140" rx="8" fill="#F5F7FA" stroke="#DEE2E6" stroke-width="2"/>
  <path d="M40 120C60 120 60 60 80 60C100 60 100 100 120 100C140 100 140 80 160 80C180 80 180 40 200 40" stroke="#1A3A6E" stroke-width="3" stroke-linecap="round"/>
  <path d="M40 120C60 120 60 90 80 90C100 90 100 110 120 110C140 110 140 70 160 70C180 70 180 100 200 100" stroke="#E63946" stroke-width="3" stroke-linecap="round"/>
  <circle cx="80" cy="60" r="4" fill="#1A3A6E"/>
  <circle cx="120" cy="100" r="4" fill="#1A3A6E"/>
  <circle cx="160" cy="80" r="4" fill="#1A3A6E"/>
  <circle cx="80" cy="90" r="4" fill="#E63946"/>
  <circle cx="120" cy="110" r="4" fill="#E63946"/>
  <circle cx="160" cy="70" r="4" fill="#E63946"/>
  <line x1="40" y1="140" x2="200" y2="140" stroke="#ADB5BD" stroke-width="2"/>
  <line x1="40" y1="40" x2="40" y2="140" stroke="#ADB5BD" stroke-width="2"/>
</svg>
